<mxfile host="app.diagrams.net" agent="Mozilla/5.0 (X11; Linux x86_64) AppleWebKit/537.36 (KHTML, like Gecko) Chrome/131.0.0.0 Safari/537.36" version="26.0.8">
  <diagram id="D88q20M7RQ0zMm1VjkSv" name="Page-1">
    <mxGraphModel dx="880" dy="477" grid="1" gridSize="10" guides="1" tooltips="1" connect="1" arrows="1" fold="1" page="1" pageScale="1" pageWidth="827" pageHeight="1169" math="0" shadow="0">
      <root>
        <mxCell id="0" />
        <mxCell id="1" parent="0" />
        <mxCell id="2" value="User runs internsctl" style="rounded=1;whiteSpace=wrap;fillColor=#FFFFFF;strokeColor=#000000;" parent="1" vertex="1">
          <mxGeometry x="400" y="20" width="220" height="40" as="geometry" />
        </mxCell>
        <mxCell id="3" value="--version&#xa;Show ver." style="rounded=1;whiteSpace=wrap;fillColor=#FFFFFF;strokeColor=#000000;" parent="1" vertex="1">
          <mxGeometry x="230" y="100" width="120" height="50" as="geometry" />
        </mxCell>
        <mxCell id="4" value="--help&#xa;Show commands" style="rounded=1;whiteSpace=wrap;fillColor=#FFFFFF;strokeColor=#000000;" parent="1" vertex="1">
          <mxGeometry x="630" y="100" width="120" height="50" as="geometry" />
        </mxCell>
        <mxCell id="5" value="" parent="1" source="2" target="3" edge="1">
          <mxGeometry relative="1" as="geometry" />
        </mxCell>
        <mxCell id="6" value="" parent="1" source="2" target="4" edge="1">
          <mxGeometry relative="1" as="geometry" />
        </mxCell>
        <mxCell id="7" value="Main Commands" style="rounded=1;fillColor=#E0E0E0;strokeColor=#000000;" parent="1" vertex="1">
          <mxGeometry x="300" y="180" width="320" height="50" as="geometry" />
        </mxCell>
        <mxCell id="8" value="" parent="1" source="3" target="7" edge="1">
          <mxGeometry relative="1" as="geometry" />
        </mxCell>
        <mxCell id="9" value="" parent="1" source="4" target="7" edge="1">
          <mxGeometry relative="1" as="geometry" />
        </mxCell>
        <mxCell id="10" value="cpu&#xa;getinfo" style="rounded=1;whiteSpace=wrap;fillColor=#FFFFFF;strokeColor=#000000;" parent="1" vertex="1">
          <mxGeometry x="220" y="260" width="100" height="50" as="geometry" />
        </mxCell>
        <mxCell id="11" value="memory&#xa;getinfo" style="rounded=1;whiteSpace=wrap;fillColor=#FFFFFF;strokeColor=#000000;" parent="1" vertex="1">
          <mxGeometry x="360" y="260" width="100" height="50" as="geometry" />
        </mxCell>
        <mxCell id="12" value="user&#xa;list / create &lt;u&gt;" style="rounded=1;whiteSpace=wrap;fillColor=#FFFFFF;strokeColor=#000000;" parent="1" vertex="1">
          <mxGeometry x="500" y="260" width="120" height="50" as="geometry" />
        </mxCell>
        <mxCell id="13" value="file&#xa;getinfo &lt;file&gt;" style="rounded=1;whiteSpace=wrap;fillColor=#FFFFFF;strokeColor=#000000;" parent="1" vertex="1">
          <mxGeometry x="640" y="260" width="120" height="50" as="geometry" />
        </mxCell>
        <mxCell id="14" value="" parent="1" source="7" target="10" edge="1">
          <mxGeometry relative="1" as="geometry" />
        </mxCell>
        <mxCell id="15" value="" parent="1" source="7" target="11" edge="1">
          <mxGeometry relative="1" as="geometry" />
        </mxCell>
        <mxCell id="16" value="" parent="1" source="7" target="12" edge="1">
          <mxGeometry relative="1" as="geometry" />
        </mxCell>
        <mxCell id="17" value="" parent="1" source="7" target="13" edge="1">
          <mxGeometry relative="1" as="geometry" />
        </mxCell>
        <mxCell id="18" value="lscpu&#xa;(CPU info)" style="rounded=1;whiteSpace=wrap;fillColor=#FFFFFF;strokeColor=#000000;" parent="1" vertex="1">
          <mxGeometry x="220" y="330" width="100" height="50" as="geometry" />
        </mxCell>
        <mxCell id="19" value="free -h&#xa;(Memory info)" style="rounded=1;whiteSpace=wrap;fillColor=#FFFFFF;strokeColor=#000000;" parent="1" vertex="1">
          <mxGeometry x="360" y="330" width="100" height="50" as="geometry" />
        </mxCell>
        <mxCell id="20" value="" parent="1" source="10" target="18" edge="1">
          <mxGeometry relative="1" as="geometry" />
        </mxCell>
        <mxCell id="21" value="" parent="1" source="11" target="19" edge="1">
          <mxGeometry relative="1" as="geometry" />
        </mxCell>
        <mxCell id="22" value="--size&#xa;stat -c %s" style="rounded=1;whiteSpace=wrap;fillColor=#FFFFFF;strokeColor=#000000;" parent="1" vertex="1">
          <mxGeometry x="640" y="330" width="120" height="50" as="geometry" />
        </mxCell>
        <mxCell id="23" value="--permissions&#xa;stat -c %A" style="rounded=1;whiteSpace=wrap;fillColor=#FFFFFF;strokeColor=#000000;" parent="1" vertex="1">
          <mxGeometry x="640" y="390" width="120" height="50" as="geometry" />
        </mxCell>
        <mxCell id="24" value="" parent="1" source="13" target="22" edge="1">
          <mxGeometry relative="1" as="geometry" />
        </mxCell>
        <mxCell id="25" value="" parent="1" source="22" target="23" edge="1">
          <mxGeometry relative="1" as="geometry" />
        </mxCell>
      </root>
    </mxGraphModel>
  </diagram>
</mxfile>
